<?xml version="1.0" encoding="UTF-8" standalone="no"?>
<svg
   xmlns:dc="http://purl.org/dc/elements/1.1/"
   xmlns:cc="http://creativecommons.org/ns#"
   xmlns:rdf="http://www.w3.org/1999/02/22-rdf-syntax-ns#"
   xmlns:svg="http://www.w3.org/2000/svg"
   xmlns="http://www.w3.org/2000/svg"
   xmlns:sodipodi="http://sodipodi.sourceforge.net/DTD/sodipodi-0.dtd"
   xmlns:inkscape="http://www.inkscape.org/namespaces/inkscape"
   version="1.0"
   width="683.000000pt"
   height="600.000000pt"
   viewBox="0 0 683.000000 600.000000"
   preserveAspectRatio="xMidYMid meet"
   id="svg3805"
   sodipodi:docname="DPlogo.svg"
   inkscape:version="0.92.3 (2405546, 2018-03-11)">
  <defs
     id="defs3809" />
  <sodipodi:namedview
     pagecolor="#ffffff"
     bordercolor="#666666"
     borderopacity="1"
     objecttolerance="10"
     gridtolerance="10"
     guidetolerance="10"
     inkscape:pageopacity="0"
     inkscape:pageshadow="2"
     inkscape:window-width="1920"
     inkscape:window-height="1017"
     id="namedview3807"
     showgrid="false"
     inkscape:zoom="1.06"
     inkscape:cx="455.33333"
     inkscape:cy="400"
     inkscape:window-x="1912"
     inkscape:window-y="-8"
     inkscape:window-maximized="1"
     inkscape:current-layer="svg3805" />
  <metadata
     id="metadata3791">
Created by potrace 1.15, written by Peter Selinger 2001-2017
<rdf:RDF>
  <cc:Work
     rdf:about="">
    <dc:format>image/svg+xml</dc:format>
    <dc:type
       rdf:resource="http://purl.org/dc/dcmitype/StillImage" />
  </cc:Work>
</rdf:RDF>
</metadata>
  <g
     transform="translate(0.000000,600.000000) scale(0.100000,-0.100000)"
     fill="#000000"
     stroke="none"
     id="g3803">
    <path
       d="M0 3000 l0 -3000 3415 0 3415 0 0 3000 0 3000 -3415 0 -3415 0 0 -3000z m4429 2849 c241 -52 491 -353 580 -699 40 -157 55 -285 55 -480 0 -137 -4 -180 -22 -255 -26 -106 -114 -290 -170 -357 -189 -226 -454 -278 -724 -142 -215 108 -419 415 -482 724 -75 371 -33 685 124 933 60 96 150 175 261 230 130 65 232 77 378 46z m-1679 -14 c229 -61 375 -235 457 -547 25 -93 27 -120 27 -273 0 -229 -34 -392 -128 -606 -114 -257 -317 -469 -518 -539 -89 -31 -226 -38 -303 -15 -179 52 -294 153 -385 340 -138 281 -151 619 -38 965 108 331 361 602 630 674 69 19 189 19 258 1z m-1418 -1860 c410 -86 733 -661 679 -1203 -34 -335 -141 -557 -334 -693 -98 -69 -179 -94 -297 -94 -141 1 -234 36 -378 145 -197 148 -330 387 -387 694 -46 249 -26 505 55 714 126 326 384 496 662 437z m4448 -13 c206 -72 348 -230 428 -477 63 -191 76 -386 42 -600 -47 -296 -159 -529 -334 -700 -135 -131 -262 -193 -416 -202 -163 -10 -287 43 -413 176 -127 136 -209 324 -236 546 -45 370 56 750 267 1001 113 134 281 249 402 274 65 13 196 4 260 -18z m-2221 -303 c90 -14 193 -52 276 -101 86 -51 224 -187 289 -285 26 -40 128 -234 226 -430 296 -594 342 -658 692 -966 235 -205 365 -360 449 -533 62 -127 83 -226 76 -359 -9 -194 -83 -343 -251 -510 -129 -127 -265 -200 -446 -237 -125 -26 -364 -21 -515 12 -152 33 -376 110 -575 200 -203 91 -270 110 -386 110 -112 0 -213 -28 -377 -106 -242 -114 -424 -175 -641 -214 -135 -25 -361 -27 -464 -5 -212 44 -402 165 -532 336 -196 259 -221 504 -80 784 93 186 239 358 440 520 139 112 222 192 302 293 134 169 197 278 416 717 186 374 240 462 345 562 114 108 239 174 397 207 78 17 270 20 359 5z"
       id="path3793" />
    <path
       d="M2728 2426 c-216 -50 -362 -178 -406 -356 -30 -124 -23 -180 32 -228 102 -90 258 -57 409 86 63 61 75 101 37 122 -30 16 -57 4 -114 -50 -65 -60 -84 -70 -141 -70 -52 0 -99 21 -115 50 -23 43 24 161 90 227 96 97 188 127 385 127 187 0 221 -12 396 -145 82 -63 124 -116 171 -215 26 -55 31 -79 31 -138 0 -74 -25 -171 -65 -250 -68 -136 -221 -260 -416 -335 -109 -43 -314 -101 -390 -110 -119 -15 -363 3 -482 35 -130 36 -175 40 -205 20 -14 -9 -25 -24 -25 -32 0 -29 64 -81 120 -98 177 -53 469 -65 645 -28 429 91 719 273 844 527 40 82 71 196 71 259 0 121 -72 302 -141 358 -23 18 -62 54 -88 80 -47 47 -128 88 -286 145 -86 31 -265 40 -357 19z"
       id="path3795" />
    <path
       d="M2971 2184 c-12 -15 -21 -32 -21 -39 0 -29 -104 -216 -164 -296 -83 -109 -364 -419 -451 -495 -56 -50 -66 -63 -63 -88 4 -41 27 -52 76 -38 72 22 246 202 482 497 91 114 124 166 181 281 38 77 69 147 69 156 0 22 -33 48 -63 48 -16 0 -33 -10 -46 -26z"
       id="path3797" />
    <path
       d="M4279 2149 c-111 -9 -263 -96 -354 -201 -97 -113 -112 -247 -34 -312 51 -44 105 -44 256 0 40 11 37 -20 -7 -94 -28 -48 -51 -74 -71 -82 -38 -16 -106 -8 -161 19 -24 11 -52 21 -61 21 -26 0 -37 -31 -22 -65 17 -40 41 -60 100 -82 42 -16 50 -23 47 -42 -5 -49 -194 -296 -300 -392 -73 -67 -82 -90 -48 -124 39 -39 72 -33 138 28 57 53 262 321 333 435 32 53 44 64 79 73 267 71 438 185 536 354 l44 77 -13 86 c-6 47 -19 99 -28 116 -25 49 -127 142 -175 160 -55 21 -175 33 -259 25z m211 -120 c125 -55 169 -162 120 -292 -26 -70 -89 -133 -193 -195 -161 -96 -190 -94 -140 10 17 35 36 81 43 103 7 22 26 73 41 113 43 108 37 159 -21 177 -23 7 -56 -8 -68 -33 -5 -9 -13 -39 -17 -67 -8 -58 -30 -115 -44 -115 -5 0 -23 11 -39 25 -32 27 -64 31 -108 15 -40 -16 -64 -4 -64 32 0 74 63 143 185 200 131 61 211 68 305 27z"
       id="path3799" />
    <path
       d="M3388 962 c-18 -15 -50 -40 -70 -55 -47 -35 -51 -75 -12 -114 29 -29 64 -27 119 7 62 38 88 143 43 174 -31 22 -42 20 -80 -12z"
       id="path3801" />
  </g>
  <path
     style="fill:#ffffff;stroke-width:0.94339621"
     d="M 166.06227,532.66157 C 145.19171,527.18979 120.06734,507.28736 105.64636,484.80271 99.965064,475.94464 92.946535,460.85663 89.200173,449.44769 65.3465,376.80516 86.297753,298.13689 135.62252,275.13993 c 9.44565,-4.40389 17.02643,-5.99422 28.20138,-5.9162 21.16457,0.14776 39.93038,8.97944 58.52975,27.5456 18.20245,18.16994 33.16055,45.56692 40.44581,74.07973 4.18453,16.3773 5.19244,24.83258 5.17302,43.39622 -0.026,24.86077 -3.68,45.14706 -11.80987,65.56604 -10.43855,26.21744 -33.122,47.96085 -55.54626,53.24429 -8.70513,2.05105 -25.97932,1.85406 -34.55408,-0.39404 z"
     id="path3811"
     inkscape:connector-curvature="0"
     transform="scale(0.74999999)" />
  <path
     style="fill:#ffffff;stroke-width:0.94339621"
     d="m 310.05031,286.77508 c -5.75737,-1.11093 -15.21708,-4.60448 -22.16981,-8.1875 -9.87325,-5.08807 -22.59579,-17.62366 -28.91818,-28.49324 -15.563,-26.75624 -22.86651,-60.79219 -19.73751,-91.98113 4.83943,-48.23803 24.10539,-88.581066 54.44329,-114.004605 11.46848,-9.610732 21.84201,-15.716628 33.58742,-19.769676 9.11563,-3.145576 10.3985,-3.342845 21.94574,-3.374626 14.23443,-0.03918 21.30872,1.669286 33.96226,8.201984 9.48403,4.896362 21.73566,16.739122 28.23917,27.296751 5.71557,9.278505 11.88674,24.44235 15.84344,38.930626 l 3.0872,11.304446 -0.0668,23.58491 c -0.05,17.66131 -0.47106,25.95434 -1.67641,33.01887 -6.08907,35.68761 -22.28056,69.5258 -44.34672,92.67909 -14.33848,15.04491 -29.87385,25.19227 -44.47612,29.05084 -5.59269,1.47784 -25.14754,2.62496 -29.71698,1.74326 z"
     id="path3813"
     inkscape:connector-curvature="0"
     transform="scale(0.74999999)" />
  <path
     style="fill:#ffffff;stroke-width:0.94339621"
     d="m 577.97484,286.01206 c -26.68729,-5.65552 -46.47686,-20.13183 -64.51758,-47.19538 -18.03047,-27.04818 -27.25513,-58.15121 -28.58337,-96.37535 -1.08533,-31.23366 4.56185,-56.500134 17.87212,-79.962929 9.43438,-16.630549 20.83348,-27.212575 38.79444,-36.01369 11.61678,-5.692379 20.18527,-7.932839 30.43395,-7.957764 7.9388,-0.01931 20.2028,2.153586 27.4418,4.862045 8.58139,3.210705 20.89599,12.183931 30.60966,22.304194 23.44662,24.428039 37.85718,56.862034 42.66943,96.036534 3.34503,27.23054 2.63811,57.25519 -1.69873,72.1483 -2.9255,10.04645 -8.65447,23.20742 -14.95234,34.34953 -9.22059,16.31294 -26.35793,30.43094 -43.63541,35.9475 -9.38144,2.99541 -25.06966,3.84147 -34.43397,1.85701 z"
     id="path3815"
     inkscape:connector-curvature="0"
     transform="scale(0.74999999)" />
  <path
     style="fill:#ffffff;stroke-width:0.94339621"
     d="m 715.37104,534.07446 c -17.73455,-3.70563 -35.48141,-17.45105 -48.48553,-37.55336 -12.72625,-19.67278 -19.65714,-44.38478 -20.69429,-73.78525 -1.36599,-38.72246 8.41094,-75.31855 28.10197,-105.18868 11.6368,-17.65234 33.93406,-36.79834 52.00747,-44.6573 6.80098,-2.9573 7.00322,-2.98397 22.4289,-2.95732 14.41915,0.0249 16.07389,0.21045 22.45874,2.51826 30.57412,11.05104 51.66475,38.67452 60.42769,79.14525 9.78511,45.19145 -1.34903,101.13866 -27.52945,138.3309 -11.1436,15.83076 -30.87004,33.09509 -44.48148,38.92962 -13.26575,5.68637 -31.6265,7.85222 -44.23402,5.21788 z"
     id="path3817"
     inkscape:connector-curvature="0"
     transform="scale(0.74999999)" />
  <path
     style="fill:#ffffff;stroke-width:0.94339621"
     d="m 263.3522,769.48515 c -38.17129,-4.47427 -73.48389,-30.14148 -91.85638,-66.76643 -15.16993,-30.24077 -12.03921,-61.21147 9.74073,-96.36038 11.91921,-19.23546 27.47311,-36.20521 51.5915,-56.28777 27.94441,-23.26837 45.11916,-42.90675 61.44526,-70.25925 4.18097,-7.00472 17.69537,-32.57332 30.03202,-56.81913 23.32557,-45.84286 27.31274,-53.20857 35.01654,-64.68807 13.62705,-20.30578 35.49642,-36.12206 59.53177,-43.05433 17.39359,-5.01666 48.90673,-5.22974 65.65641,-0.44395 18.05594,5.15902 30.42226,12.39776 44.64335,26.1324 18.54462,17.91029 19.65025,19.70165 55.17392,89.39371 36.04915,70.72297 41.04593,77.71977 81.80471,114.54769 37.99137,34.3274 52.32102,50.69164 63.61447,72.64673 9.58519,18.63413 13.1524,33.87035 12.02234,51.34962 -1.65078,25.53345 -11.5373,45.65138 -32.78887,66.72158 -21.93509,21.74787 -46.21225,32.32309 -78.64664,34.25875 -11.76066,0.70187 -34.69704,-0.88109 -46.82132,-3.23138 -19.59949,-3.79936 -46.59203,-13.0077 -79.59377,-27.15295 -27.38584,-11.73815 -33.31051,-13.52802 -46.78231,-14.13309 -18.52708,-0.83214 -27.95579,1.6603 -59.79596,15.80678 -33.75959,14.99927 -58.82572,23.05256 -83.51607,26.83217 -11.48251,1.75775 -40.85225,2.63486 -50.4717,1.5073 z m 188.19517,-73.22404 c 10.77252,-3.12716 18.10132,-18.54108 12.04068,-25.32393 -4.11158,-4.60153 -6.08743,-4.1927 -15.72153,3.25303 -10.57838,8.17551 -12.43981,11.3647 -9.79317,16.77864 1.75221,3.5843 7.07984,7.07752 9.70294,6.36201 0.78373,-0.21378 2.48071,-0.69517 3.77108,-1.06975 z m 43.21034,-0.31515 c 7.70586,-3.94058 29.23771,-30.13074 48.95448,-59.54558 3.65729,-5.4562 7.2757,-10.43996 8.0409,-11.07502 0.7652,-0.63506 6.85095,-2.90008 13.5239,-5.03339 32.60864,-10.42478 50.56932,-23.56161 64.44447,-47.13606 l 4.69079,-7.96986 -1.82325,-11.22778 c -1.00278,-6.17527 -2.67284,-13.14844 -3.71124,-15.49592 -2.64609,-5.98191 -14.4613,-17.22198 -21.88869,-20.82317 -11.56082,-5.60531 -35.26057,-6.43008 -48.72579,-1.6957 -16.97496,5.96841 -36.36743,21.94829 -42.58882,35.09426 -4.26755,9.01745 -4.9234,18.74331 -1.68214,24.94531 1.20454,2.30483 3.81321,5.48212 5.79704,7.06064 5.0951,4.05412 13.63326,4.42534 26.11001,1.13521 5.2589,-1.38679 9.31451,-2.01589 9.8147,-1.52247 2.01657,1.98928 -6.6233,17.19551 -12.01293,21.14284 -4.0676,2.97908 -12.34823,2.52137 -21.85837,-1.20819 -4.15095,-1.62786 -8.20519,-2.96171 -9.00944,-2.9641 -2.38972,-0.008 -3.72641,2.0394 -3.72641,5.70521 0,5.67957 3.25555,9.36288 12.0423,13.62457 6.0045,2.91227 7.76902,4.21047 7.76902,5.71588 0,5.76769 -20.29943,32.91838 -38.03316,50.86976 -10.38034,10.50773 -11.62219,12.63874 -9.62072,16.50916 1.51545,2.93053 5.41493,5.58187 8.30467,5.64652 0.92869,0.0208 3.2636,-0.76768 5.18868,-1.75212 z m -147.8902,-32.20582 c 19.52546,-2.38591 46.49087,-10.51156 66.01299,-19.8921 38.62165,-18.55801 60.49663,-44.51324 66.52499,-78.93366 1.07511,-6.13857 1.15595,-9.38636 0.37569,-15.09434 -1.76724,-12.92841 -8.34528,-29.72693 -14.5475,-37.15039 -1.15754,-1.38546 -6.55312,-6.4798 -11.99017,-11.32075 -7.28418,-6.48556 -12.08241,-9.88352 -18.2339,-12.91268 -20.70883,-10.19758 -33.72736,-13.4768 -53.569,-13.49346 -24.13472,-0.0203 -43.13353,7.53078 -57.62873,22.90435 -10.53039,11.16851 -16.59175,26.01382 -16.59175,40.63598 0,7.60609 1.42002,11.42944 5.78373,15.57236 7.5608,7.17827 20.11096,9.23079 31.09003,5.08462 12.10985,-4.57321 27.29082,-16.37306 31.04692,-24.13213 1.91369,-3.95316 1.9635,-4.4732 0.62421,-6.51721 -1.7406,-2.6565 -5.29494,-3.72449 -8.42933,-2.5328 -1.25374,0.47667 -5.63462,3.72354 -9.73528,7.21526 -4.10067,3.49172 -8.82184,6.92316 -10.49149,7.62543 -7.48632,3.1488 -20.03241,0.1104 -22.69094,-5.49527 -1.56134,-3.29217 -0.23565,-9.42325 3.83921,-17.75565 3.92352,-8.02295 13.61233,-17.7055 21.62413,-21.61017 10.96387,-5.3434 16.06965,-6.16986 37.99918,-6.15086 22.73962,0.0197 25.23465,0.58449 37.48314,8.48484 17.63486,11.37458 27.31063,20.6677 34.02249,32.67696 7.20446,12.89066 8.68491,22.21896 5.77732,36.40262 -3.3255,16.22225 -10.55986,29.20206 -22.77231,40.85783 -16.31059,15.56711 -36.24715,25.19683 -72.43517,34.98752 -13.48927,3.64953 -14.94494,3.84974 -31.13207,4.28181 -20.16255,0.53819 -37.01242,-1.11828 -54.43155,-5.35103 -6.3834,-1.55114 -13.36688,-3.09368 -15.51885,-3.42789 -4.91855,-0.76386 -10.31299,0.94984 -12.23798,3.88775 -1.33288,2.03425 -1.31334,2.48028 0.22262,5.08044 2.25842,3.82321 8.60214,8.24979 14.95515,10.43555 5.18724,1.78467 24.52459,5.31671 32.57665,5.95025 9.86819,0.77643 35.08187,0.59054 42.47757,-0.31318 z m -30.1628,-28.93539 c 9.27433,-4.60959 34.57927,-31.42361 60.80144,-64.42739 10.66461,-13.42271 14.8832,-19.67265 21.01352,-31.13208 5.56709,-10.40656 12.47404,-25.86349 12.47404,-27.91538 0,-2.84368 -4.4232,-6.04688 -8.34995,-6.04688 -3.07582,0 -4.22494,0.57653 -6.64666,3.33472 -1.61035,1.83408 -2.92792,4.02314 -2.92792,4.86454 0,2.12865 -8.23901,18.191 -14.6327,28.52716 -9.26727,14.98165 -29.11947,38.04298 -58.20722,67.61646 -18.90943,19.22518 -19.78295,20.60263 -16.25753,25.63588 2.01315,2.87418 6.34339,2.71875 12.73298,-0.45703 z"
     id="path3819"
     inkscape:connector-curvature="0"
     transform="scale(0.74999999)" />
  <path
     style="fill:#ffffff;stroke-width:0.94339621"
     d="m 567.96867,602.05938 c -0.28215,-0.73526 1.04529,-4.87441 2.94985,-9.19811 6.29885,-14.29948 13.80876,-36.0548 14.33752,-41.53409 0.48723,-5.0489 0.3454,-5.54383 -2.36548,-8.25471 -1.69626,-1.69626 -3.86661,-2.88379 -5.27046,-2.88379 -5.94826,0 -9.20007,3.81251 -10.4605,12.26415 -1.02507,6.87351 -3.20951,13.81519 -4.74967,15.0934 -1.18365,0.98235 -2.06146,0.75379 -5.04447,-1.31343 -5.47337,-3.79306 -8.80275,-4.44502 -14.76662,-2.89163 -5.94367,1.54813 -7.8151,1.10648 -8.60234,-2.03013 -1.24946,-4.97826 2.98351,-13.44101 9.31383,-18.62062 10.37266,-8.48715 28.93377,-15.91051 39.85319,-15.93895 14.94183,-0.0389 29.42748,9.43881 32.655,21.36562 1.54818,5.72108 0.55999,15.44538 -2.17527,21.40566 -4.61841,10.0638 -16.52398,20.38091 -34.17072,29.6116 -8.68219,4.5415 -10.68787,5.05147 -11.50386,2.92503 z"
     id="path3821"
     inkscape:connector-curvature="0"
     transform="scale(0.74999999)" />
</svg>
