<?xml version="1.0" encoding="UTF-8" standalone="no"?>
<svg
   xmlns:dc="http://purl.org/dc/elements/1.1/"
   xmlns:cc="http://creativecommons.org/ns#"
   xmlns:rdf="http://www.w3.org/1999/02/22-rdf-syntax-ns#"
   xmlns:svg="http://www.w3.org/2000/svg"
   xmlns="http://www.w3.org/2000/svg"
   viewBox="0 0 1122.52 793.70667"
   height="793.70667"
   width="1122.52"
   xml:space="preserve"
   id="svg2"
   version="1.1"><metadata
     id="metadata8"><rdf:RDF><cc:Work
         rdf:about=""><dc:format>image/svg+xml</dc:format><dc:type
           rdf:resource="http://purl.org/dc/dcmitype/StillImage" /></cc:Work></rdf:RDF></metadata><defs
     id="defs6"><clipPath
       id="clipPath18"
       clipPathUnits="userSpaceOnUse"><path
         id="path16"
         d="M 0,595.28 H 841.89 V 0 H 0 Z" /></clipPath></defs><g
     transform="matrix(1.3333333,0,0,-1.3333333,0,793.70667)"
     id="g10"><g
       id="g12"><g
         clip-path="url(#clipPath18)"
         id="g14"><g
           transform="translate(434.9189,138.9434)"
           id="g20"><path
             id="path22"
             style="fill:#231f20;fill-opacity:1;fill-rule:evenodd;stroke:none"
             d="M 0,0 C -0.081,1.764 -0.312,3.823 -2.502,4.797 -4.814,5.825 -6.8,5.122 -8.471,3.315 -9.982,1.682 -11.74,0.372 -13.668,-0.75 c -2.878,-1.676 -3.581,-3.812 -2.474,-7.081 0.882,-2.605 3.089,-3.861 6.178,-3.52 C -4.62,-10.758 -0.087,-5.731 0,0 m -30.557,92.43 c -0.066,2.058 -2.618,4.666 -4.549,4.873 -2.333,0.251 -5.054,-1.674 -5.805,-4.248 -1.925,-6.607 -5.309,-12.529 -9.016,-18.201 -8.155,-12.481 -19.118,-22.637 -28.794,-33.86 -3.613,-4.189 -8.015,-7.704 -12.09,-11.491 -1.65,-1.534 -2.465,-3.181 -1.167,-5.325 1.335,-2.206 3.271,-2.397 5.512,-1.68 3.009,0.962 5.383,2.834 7.622,5 8.956,8.66 17.388,17.794 24.98,27.676 4.663,6.069 9.974,11.593 13.952,18.259 3.393,5.685 4.799,12.328 8.976,17.574 0.323,0.405 0.296,1.088 0.379,1.423 m 92.158,0.391 C 58.045,93.252 54.613,92.196 51.15,90.864 42.833,87.668 36.228,82.203 30.513,75.583 27.208,71.754 25.56,67.111 25.553,62.051 25.544,55.079 29.756,51.034 36.698,50.835 c 4.153,-0.119 7.976,0.974 11.717,2.579 0.807,0.346 1.654,0.735 2.357,-0.14 0.569,-0.709 0.305,-1.497 -0.083,-2.165 -1.493,-2.574 -3.024,-5.127 -4.563,-7.674 -1.741,-2.884 -4.352,-3.914 -7.615,-3.497 -3.267,0.419 -6.436,1.12 -9.203,3.064 -1.593,1.12 -3.236,1.181 -4.785,-0.081 -1.673,-1.363 -0.938,-2.96 -0.255,-4.452 1.741,-3.806 4.834,-5.8 8.866,-6.604 2.943,-0.586 3.443,-1.684 1.929,-4.177 C 33.122,24.489 31.526,20.91 28.968,18.289 22.504,11.671 18.361,2.984 10.276,-2.21 7.273,-4.14 7.095,-7.715 9.146,-10.037 c 1.598,-1.81 6.481,-2.226 8.228,-0.216 2.348,2.701 5.493,4.618 7.54,7.479 7.263,10.151 15.417,19.669 21.78,30.46 0.873,1.479 1.987,2.58 3.738,2.889 8.53,1.509 16.227,5.087 23.755,9.235 9.144,5.039 15.169,12.764 19.688,21.893 0.599,1.21 0.981,2.526 0.657,3.91 -0.654,2.795 -1.074,5.61 -1.449,8.466 -0.857,6.531 -10.942,16.54 -17.558,17.436 -4.546,0.616 -9.072,1.807 -13.924,1.306 M -41.486,106.21 c 6.693,-0.21 16.558,-1.979 24.361,-9.747 0.936,-0.931 2.193,-1.541 3.307,-2.292 5.35,-3.606 8.728,-8.986 11.565,-14.432 C 2.533,70.554 0.253,61.177 -3.529,52.233 -8.003,41.654 -16.421,34.802 -26.183,29.315 c -8.385,-4.711 -17.645,-6.985 -26.672,-9.938 -6.088,-1.992 -12.334,-3.091 -18.689,-3.052 -12.496,0.078 -24.96,0.64 -36.857,5.176 -2.59,0.987 -5.251,1.166 -7.796,-0.298 -2.681,-1.543 -3.065,-3.531 -1.083,-5.897 2.459,-2.938 5.804,-4.465 9.401,-5.255 16.174,-3.555 32.411,-4.939 48.785,-1.175 18.095,4.161 35.187,9.945 49.517,22.813 9.402,8.443 14.299,18.602 17.127,30.351 1.98,8.228 -0.654,15.641 -3.463,23.212 -2.029,5.471 -5.498,9.332 -10.161,12.419 -0.901,0.596 -1.672,1.258 -2.198,2.22 -1.3,2.372 -3.309,3.961 -5.757,5.017 -3.793,1.635 -7.65,3.131 -11.385,4.888 -11.493,5.405 -23.788,5.83 -35.454,2.671 -15.405,-4.171 -26.217,-14.156 -28.599,-31.024 -0.507,-3.59 -0.69,-7.685 1.511,-10.55 4.707,-6.124 13.078,-7.678 20.111,-4.299 5.998,2.881 11.588,6.369 15.959,11.564 1.952,2.321 2.313,4.357 0.649,6.111 -1.779,1.875 -4.152,1.939 -6.422,-0.041 -1.732,-1.513 -3.264,-3.254 -4.919,-4.858 -4.351,-4.221 -9.775,-4.84 -15.07,-1.825 -1.768,1.007 -2.814,2.384 -2.519,4.437 0.887,6.179 3.522,11.49 8.216,15.664 7.64,6.796 16.865,8.757 30.465,8.564 m -71.425,-158.564 c -8.685,1.372 -17.109,3.534 -24.798,8.003 -13.841,8.044 -24.059,19.357 -30.133,34.16 -6.537,15.932 -3.626,31.105 4.634,45.595 8.447,14.818 19.686,27.189 33.344,37.368 15.655,11.668 26.903,27.005 36.455,43.742 9.963,17.456 17.901,35.944 27.222,53.724 12.582,24 32.724,36.427 59.706,36.135 21.552,-0.233 39.036,-9.596 51.63,-27.463 6.294,-8.927 10.857,-18.782 15.557,-28.566 7.195,-14.983 14.367,-29.962 23.096,-44.158 7.768,-12.635 18.071,-22.829 29.346,-32.234 12.137,-10.125 23.514,-21.004 32.015,-34.508 5.537,-8.796 9.605,-18.09 10.276,-28.706 0.743,-11.717 -2.376,-22.35 -8.84,-31.885 -11.924,-17.586 -28.116,-28.623 -49.661,-30.901 -0.375,-0.039 -0.738,-0.2 -1.107,-0.306 H 78.532 c -5.111,0.826 -10.284,1.379 -15.323,2.525 -16.374,3.722 -31.975,9.672 -46.993,17.124 -9.439,4.684 -19.223,7.012 -29.799,5.707 -8.163,-1.007 -15.553,-4.088 -22.753,-7.83 -11.561,-6.007 -23.742,-10.371 -36.319,-13.703 -6.792,-1.799 -13.751,-2.637 -20.651,-3.823 z" /></g><g
           transform="translate(501.3418,507.5356)"
           id="g24"><path
             id="path26"
             style="fill:#231f20;fill-opacity:1;fill-rule:evenodd;stroke:none"
             d="m 0,0 c 0.401,-0.257 0.771,-0.628 1.21,-0.755 13.64,-3.955 23.123,-13.284 31.269,-24.281 11.686,-15.776 17.074,-33.708 18.409,-53.137 0.825,-12.011 0.557,-23.792 -3.747,-35.213 -3.989,-10.582 -9.286,-20.344 -18.414,-27.377 -14.907,-11.482 -33.53,-11.462 -49.182,0.1 -13.84,10.224 -23.257,23.815 -29.147,39.904 -4.264,11.65 -6.527,23.722 -6.669,36.094 -0.197,17 3.746,32.991 13.368,47.212 5.626,8.314 13.392,13.924 23.226,16.476 0.822,0.214 1.587,0.646 2.378,0.977 z" /></g><g
           transform="translate(376.2114,507.5356)"
           id="g28"><path
             id="path30"
             style="fill:#231f20;fill-opacity:1;fill-rule:evenodd;stroke:none"
             d="m 0,0 c 3.173,-1.331 6.459,-2.446 9.5,-4.031 12.146,-6.337 19.104,-16.981 23.476,-29.463 8.649,-24.7 6.551,-49.02 -3.662,-72.747 -6.266,-14.556 -15.424,-27.11 -28.96,-35.76 -13.875,-8.866 -28.471,-10.068 -43.087,-1.763 -9.775,5.554 -15.617,14.596 -19.924,24.677 -7.625,17.847 -8.36,36.348 -4.637,55.131 3.767,19.006 11.786,35.879 25.918,49.493 6.469,6.231 13.906,10.855 22.596,13.356 0.909,0.262 1.758,0.733 2.634,1.107 z" /></g><g
           transform="translate(642.6182,294.7568)"
           id="g32"><path
             id="path34"
             style="fill:#231f20;fill-opacity:1;fill-rule:evenodd;stroke:none"
             d="m 0,0 c -1.231,-6.308 -1.684,-12.74 -3.335,-18.988 -3.968,-15.008 -10.314,-28.783 -21.12,-40.114 -7.763,-8.137 -16.887,-14.394 -28.201,-16.375 -16.689,-2.922 -29.435,3.998 -39.248,16.991 -9.453,12.515 -13.511,26.948 -14.426,42.466 -0.73,12.391 0.271,24.594 3.642,36.508 4.914,17.362 13.887,32.309 28.135,43.602 12.653,10.027 26.796,13.288 42.108,6.734 10.169,-4.353 17.336,-12.182 22.694,-21.745 5.4,-9.64 8.117,-20.07 9.281,-30.975 0.091,-0.852 0.311,-1.69 0.47,-2.535 z" /></g><g
           transform="translate(217.0596,309.1724)"
           id="g36"><path
             id="path38"
             style="fill:#231f20;fill-opacity:1;fill-rule:evenodd;stroke:none"
             d="m 0,0 c 1.373,8.524 2.573,17.068 5.678,25.224 2.726,7.16 6.161,13.882 11.205,19.67 15.033,17.251 37.08,19.588 55.874,6.148 12.735,-9.108 20.872,-21.576 26.556,-35.834 9.182,-23.034 9.549,-46.427 2.138,-69.948 C 98.892,-62.862 94.762,-70.272 88.868,-76.534 73.926,-92.41 54.341,-94.757 35.927,-83.03 20.632,-73.289 11.314,-59.175 5.557,-42.295 2.588,-33.591 1.357,-24.58 0,-15.569 Z" /></g><g
           transform="translate(500.3906,223.9541)"
           id="g40"><path
             id="path42"
             style="fill:#231f20;fill-opacity:1;fill-rule:evenodd;stroke:none"
             d="m 0,0 c 7.019,-0.253 12.518,-2.848 16.506,-7.639 2.478,-2.976 3.499,-6.654 2.792,-11.164 -1.904,-12.149 -11.277,-16.867 -20.327,-22.1 -1.568,-0.907 -3.335,-1.471 -5.017,-2.177 -0.746,-0.315 -1.501,-0.413 -2.135,0.239 -0.659,0.679 -0.486,1.447 -0.029,2.11 4.674,6.778 5.671,15.056 9.127,22.333 0.873,1.838 1.254,3.831 1.07,5.89 -0.251,2.805 -2.336,4.773 -5.122,4.851 -2.757,0.076 -4.663,-1.518 -5.108,-4.404 -0.512,-3.32 -0.867,-6.671 -1.965,-9.869 -0.928,-2.703 -1.813,-2.874 -3.668,-0.789 -2.756,3.1 -4.697,3.536 -8.685,1.881 -1.522,-0.632 -3.02,-1.489 -4.493,0.044 -1.349,1.403 -0.394,2.802 -0.075,4.289 0.909,4.225 3.96,6.559 7.18,8.927 C -13.805,-3.057 -6.839,-0.942 0,0" /></g><g
           transform="translate(343.2764,360.3022)"
           id="g44"><path
             id="path46"
             style="fill:#231f20;fill-opacity:1;fill-rule:evenodd;stroke:none"
             d="m 0,0 c -3.129,1.43 -6.378,2.648 -9.368,4.328 -11.941,6.716 -18.56,17.574 -22.537,30.187 -7.867,24.961 -5.004,49.203 5.95,72.596 6.721,14.352 16.27,26.611 30.072,34.83 14.148,8.425 28.774,9.167 43.121,0.407 9.595,-5.859 15.15,-15.081 19.137,-25.292 7.06,-18.079 7.211,-36.594 2.899,-55.25 C 64.911,42.928 56.364,26.315 41.812,13.153 35.149,7.129 27.57,2.742 18.806,0.515 17.889,0.282 17.026,-0.162 16.138,-0.508 10.758,-0.339 5.379,-0.169 0,0" /></g><g
           transform="translate(506.1162,358.877)"
           id="g48"><path
             id="path50"
             style="fill:#231f20;fill-opacity:1;fill-rule:evenodd;stroke:none"
             d="m 0,0 c -3.424,0.323 -6.895,0.406 -10.27,1.011 -13.484,2.423 -23.301,10.505 -31.201,21.112 -15.628,20.992 -20.883,44.83 -18.22,70.523 1.634,15.763 6.628,30.479 16.966,42.774 10.596,12.604 24.166,18.108 40.597,14.546 10.985,-2.383 19.26,-9.269 26.381,-17.605 C 36.857,117.604 43.082,100.166 45.135,81.127 47.214,61.864 44.597,43.366 35.173,26.155 30.859,18.276 25.142,11.644 17.593,6.662 16.805,6.141 16.134,5.438 15.411,4.819 10.272,3.212 5.136,1.606 0,0" /></g></g></g></g></svg>